<?xml version="1.0" encoding="UTF-8" standalone="no"?>
<svg
   xmlns:dc="http://purl.org/dc/elements/1.1/"
   xmlns:cc="http://creativecommons.org/ns#"
   xmlns:rdf="http://www.w3.org/1999/02/22-rdf-syntax-ns#"
   xmlns:svg="http://www.w3.org/2000/svg"
   xmlns="http://www.w3.org/2000/svg"
   xmlns:sodipodi="http://sodipodi.sourceforge.net/DTD/sodipodi-0.dtd"
   xmlns:inkscape="http://www.inkscape.org/namespaces/inkscape"
   viewBox="0 0 20 14.2"
   id="svg2"
   version="1.1"
   inkscape:version="0.91 r13725"
   sodipodi:docname="haskell.svg"
   width="20"
   height="14.2">
  <metadata
     id="metadata12">
    <rdf:RDF>
      <cc:Work
         rdf:about="">
        <dc:format>image/svg+xml</dc:format>
        <dc:type
           rdf:resource="http://purl.org/dc/dcmitype/StillImage" />
        <dc:title></dc:title>
      </cc:Work>
    </rdf:RDF>
  </metadata>
  <defs
     id="defs10" />
  <sodipodi:namedview
     pagecolor="#ffffff"
     bordercolor="#666666"
     borderopacity="1"
     objecttolerance="10"
     gridtolerance="10"
     guidetolerance="10"
     inkscape:pageopacity="0"
     inkscape:pageshadow="2"
     inkscape:window-width="1920"
     inkscape:window-height="1178"
     id="namedview8"
     showgrid="false"
     fit-margin-top="0"
     fit-margin-left="0"
     fit-margin-right="0"
     fit-margin-bottom="0"
     inkscape:zoom="7.375"
     inkscape:cx="-40.169492"
     inkscape:cy="7.1"
     inkscape:window-x="0"
     inkscape:window-y="22"
     inkscape:window-maximized="0"
     inkscape:current-layer="svg2" />
  <path
     d="m 8.2,0 c 1.2,1.7 2.3,3.5 3.5,5.2 2,3 4,5.9 5.9,8.9 l -3.5,0 L 14,14 c -0.9,-1.4 -1.9,-2.8 -2.8,-4.2 -0.1,-0.1 0,-0.1 -0.1,0 -0.9,1.4 -1.9,2.8 -2.8,4.2 l -0.1,0.1 -3.5,0 0,-0.1 C 6.2,11.7 7.8,9.4 9.3,7.1 L 9.3,7 C 7.8,4.7 6.2,2.4 4.7,0.1 L 4.7,0 8.2,0 Z"
     id="path4"
     inkscape:connector-curvature="0" />
  <path
     d="m 3.5,14.2 -3.5,0 0,-0.1 c 0.4,-0.6 0.8,-1.3 1.3,-1.9 1.1,-1.7 2.2,-3.3 3.3,-5 l 0,-0.1 C 3.1,4.7 1.6,2.4 0,0.1 l 3.5,0 0.1,0.1 c 0.8,1.1 1.5,2.3 2.3,3.4 0.8,1.2 1.6,2.3 2.3,3.5 l 0,0.1 c -1.5,2.3 -3.1,4.6 -4.7,7 0.1,-0.1 0.1,-0.1 0,0 z M 20,6.5 13.7,6.5 C 13.2,5.7 12.7,5 12.2,4.2 l 0,-0.1 7.8,0 0,2.4 z m 0,3.6 c 0,0 0,-0.1 0,0 l -4,0 C 15.5,9.3 15,8.6 14.5,7.8 l 0,-0.1 5.5,0 0,2.4 z"
     id="path6"
     inkscape:connector-curvature="0" />
</svg>
